<mxfile host="Electron" modified="2021-03-25T12:41:19.215Z" agent="5.0 (X11; Linux x86_64) AppleWebKit/537.36 (KHTML, like Gecko) draw.io/14.4.3 Chrome/87.0.4280.141 Electron/11.3.0 Safari/537.36" etag="G1tl8MBwjG0btYPdOn2l" compressed="false" version="14.4.3" type="device">
  <diagram id="uBbau7ussQgPSl02ERnx" name="Page-1">
    <mxGraphModel dx="2156" dy="1422" grid="1" gridSize="10" guides="1" tooltips="1" connect="1" arrows="1" fold="1" page="1" pageScale="1" pageWidth="850" pageHeight="1100" math="0" shadow="0">
      <root>
        <mxCell id="0" />
        <mxCell id="1" parent="0" />
        <mxCell id="NLRpJ9qgujv1dD-FZUDW-442" style="edgeStyle=orthogonalEdgeStyle;rounded=0;orthogonalLoop=1;jettySize=auto;html=1;exitX=0.5;exitY=1;exitDx=0;exitDy=0;entryX=0.5;entryY=0;entryDx=0;entryDy=0;" parent="1" source="409" target="NLRpJ9qgujv1dD-FZUDW-431" edge="1">
          <mxGeometry relative="1" as="geometry" />
        </mxCell>
        <mxCell id="409" value="начало&lt;br&gt;draw_editor(elem)" style="rounded=1;whiteSpace=wrap;html=1;arcSize=50;" parent="1" vertex="1">
          <mxGeometry x="609.5" y="269" width="120" height="30" as="geometry" />
        </mxCell>
        <mxCell id="410" value="конец" style="rounded=1;whiteSpace=wrap;html=1;arcSize=50;" parent="1" vertex="1">
          <mxGeometry x="610" y="930" width="120" height="30" as="geometry" />
        </mxCell>
        <mxCell id="408" value="return ret" style="rounded=0;whiteSpace=wrap;html=1;" parent="1" vertex="1">
          <mxGeometry x="610" y="850" width="120" height="60" as="geometry" />
        </mxCell>
        <mxCell id="411" style="edgeStyle=orthogonalEdgeStyle;rounded=0;orthogonalLoop=1;jettySize=auto;html=1;exitX=0.5;exitY=1;exitDx=0;exitDy=0;entryX=0.5;entryY=0;entryDx=0;entryDy=0;" parent="1" source="408" target="410" edge="1">
          <mxGeometry relative="1" as="geometry" />
        </mxCell>
        <mxCell id="NLRpJ9qgujv1dD-FZUDW-466" style="edgeStyle=orthogonalEdgeStyle;rounded=0;orthogonalLoop=1;jettySize=auto;html=1;exitX=0.5;exitY=1;exitDx=0;exitDy=0;entryX=0.5;entryY=0;entryDx=0;entryDy=0;" parent="1" source="407" target="NLRpJ9qgujv1dD-FZUDW-465" edge="1">
          <mxGeometry relative="1" as="geometry" />
        </mxCell>
        <mxCell id="407" value="setCursorVisibility&lt;br&gt;(FALSE)" style="rounded=0;whiteSpace=wrap;html=1;" parent="1" vertex="1">
          <mxGeometry x="610" y="690" width="120" height="60" as="geometry" />
        </mxCell>
        <mxCell id="406" value="ret == LEFT" style="rhombus;whiteSpace=wrap;html=1;rounded=0;" parent="1" vertex="1">
          <mxGeometry x="212.5" y="550" width="120" height="60" as="geometry" />
        </mxCell>
        <mxCell id="400" value="current_field == 0" style="rhombus;whiteSpace=wrap;html=1;rounded=0;" parent="1" vertex="1">
          <mxGeometry x="120" y="630" width="120" height="60" as="geometry" />
        </mxCell>
        <mxCell id="NLRpJ9qgujv1dD-FZUDW-457" style="edgeStyle=orthogonalEdgeStyle;rounded=0;orthogonalLoop=1;jettySize=auto;html=1;exitX=0.5;exitY=1;exitDx=0;exitDy=0;" parent="1" source="398" edge="1">
          <mxGeometry relative="1" as="geometry">
            <mxPoint x="90" y="960" as="targetPoint" />
          </mxGeometry>
        </mxCell>
        <mxCell id="398" value="&lt;font style=&quot;font-size: 11px&quot;&gt;current_field = len(list_element_fields)&lt;br&gt;- 1&lt;/font&gt;" style="rounded=0;whiteSpace=wrap;html=1;" parent="1" vertex="1">
          <mxGeometry x="30" y="710" width="120" height="60" as="geometry" />
        </mxCell>
        <mxCell id="NLRpJ9qgujv1dD-FZUDW-456" style="edgeStyle=orthogonalEdgeStyle;rounded=0;orthogonalLoop=1;jettySize=auto;html=1;exitX=0.5;exitY=1;exitDx=0;exitDy=0;" parent="1" source="399" edge="1">
          <mxGeometry relative="1" as="geometry">
            <mxPoint x="250" y="960" as="targetPoint" />
          </mxGeometry>
        </mxCell>
        <mxCell id="399" value="current_field--" style="rounded=0;whiteSpace=wrap;html=1;" parent="1" vertex="1">
          <mxGeometry x="190" y="710" width="120" height="60" as="geometry" />
        </mxCell>
        <mxCell id="415" style="edgeStyle=orthogonalEdgeStyle;rounded=0;orthogonalLoop=1;jettySize=auto;html=1;exitX=0;exitY=0.5;exitDx=0;exitDy=0;entryX=0.5;entryY=0;entryDx=0;entryDy=0;" parent="1" source="400" target="398" edge="1">
          <mxGeometry relative="1" as="geometry">
            <mxPoint x="100" y="660" as="sourcePoint" />
            <Array as="points">
              <mxPoint x="90" y="660" />
            </Array>
          </mxGeometry>
        </mxCell>
        <mxCell id="416" style="edgeStyle=orthogonalEdgeStyle;rounded=0;orthogonalLoop=1;jettySize=auto;html=1;exitX=1;exitY=0.5;exitDx=0;exitDy=0;entryX=0.5;entryY=0;entryDx=0;entryDy=0;" parent="1" source="400" target="399" edge="1">
          <mxGeometry relative="1" as="geometry">
            <Array as="points">
              <mxPoint x="250" y="660" />
            </Array>
          </mxGeometry>
        </mxCell>
        <mxCell id="NLRpJ9qgujv1dD-FZUDW-459" style="edgeStyle=orthogonalEdgeStyle;rounded=0;orthogonalLoop=1;jettySize=auto;html=1;exitX=0.5;exitY=1;exitDx=0;exitDy=0;entryX=0.5;entryY=0;entryDx=0;entryDy=0;" parent="1" source="405" target="404" edge="1">
          <mxGeometry relative="1" as="geometry" />
        </mxCell>
        <mxCell id="NLRpJ9qgujv1dD-FZUDW-460" style="edgeStyle=orthogonalEdgeStyle;rounded=0;orthogonalLoop=1;jettySize=auto;html=1;exitX=1;exitY=0.5;exitDx=0;exitDy=0;entryX=0.5;entryY=0;entryDx=0;entryDy=0;" parent="1" source="405" target="407" edge="1">
          <mxGeometry relative="1" as="geometry">
            <Array as="points">
              <mxPoint x="670" y="650" />
            </Array>
          </mxGeometry>
        </mxCell>
        <mxCell id="405" value="ret == ESC" style="rhombus;whiteSpace=wrap;html=1;rounded=0;" parent="1" vertex="1">
          <mxGeometry x="350" y="620" width="120" height="60" as="geometry" />
        </mxCell>
        <mxCell id="NLRpJ9qgujv1dD-FZUDW-443" style="edgeStyle=orthogonalEdgeStyle;rounded=0;orthogonalLoop=1;jettySize=auto;html=1;exitX=1;exitY=0.5;exitDx=0;exitDy=0;entryX=0.5;entryY=0;entryDx=0;entryDy=0;" parent="1" source="404" target="402" edge="1">
          <mxGeometry relative="1" as="geometry" />
        </mxCell>
        <mxCell id="NLRpJ9qgujv1dD-FZUDW-444" style="edgeStyle=orthogonalEdgeStyle;rounded=0;orthogonalLoop=1;jettySize=auto;html=1;exitX=0;exitY=0.5;exitDx=0;exitDy=0;entryX=0.5;entryY=0;entryDx=0;entryDy=0;" parent="1" source="404" target="403" edge="1">
          <mxGeometry relative="1" as="geometry">
            <Array as="points">
              <mxPoint x="330" y="740" />
            </Array>
          </mxGeometry>
        </mxCell>
        <mxCell id="404" value="&lt;font style=&quot;font-size: 9px&quot;&gt;current_field== len(list_element_fields)&lt;br&gt;- 1&lt;/font&gt;" style="rhombus;whiteSpace=wrap;html=1;rounded=0;" parent="1" vertex="1">
          <mxGeometry x="350" y="710" width="120" height="60" as="geometry" />
        </mxCell>
        <mxCell id="NLRpJ9qgujv1dD-FZUDW-447" style="edgeStyle=orthogonalEdgeStyle;rounded=0;orthogonalLoop=1;jettySize=auto;html=1;exitX=0;exitY=0.5;exitDx=0;exitDy=0;entryX=0.5;entryY=0;entryDx=0;entryDy=0;" parent="1" source="402" target="401" edge="1">
          <mxGeometry relative="1" as="geometry" />
        </mxCell>
        <mxCell id="NLRpJ9qgujv1dD-FZUDW-461" style="edgeStyle=orthogonalEdgeStyle;rounded=0;orthogonalLoop=1;jettySize=auto;html=1;exitX=1;exitY=0.5;exitDx=0;exitDy=0;" parent="1" source="402" edge="1">
          <mxGeometry relative="1" as="geometry">
            <mxPoint x="590" y="650" as="targetPoint" />
          </mxGeometry>
        </mxCell>
        <mxCell id="402" value="ret == ENTER" style="rhombus;whiteSpace=wrap;html=1;rounded=0;" parent="1" vertex="1">
          <mxGeometry x="430" y="790" width="120" height="60" as="geometry" />
        </mxCell>
        <mxCell id="NLRpJ9qgujv1dD-FZUDW-453" style="edgeStyle=orthogonalEdgeStyle;rounded=0;orthogonalLoop=1;jettySize=auto;html=1;exitX=0.5;exitY=1;exitDx=0;exitDy=0;" parent="1" source="401" edge="1">
          <mxGeometry relative="1" as="geometry">
            <mxPoint x="272" y="287.1083286830357" as="targetPoint" />
            <mxPoint x="467" y="940.0000000000002" as="sourcePoint" />
            <Array as="points">
              <mxPoint x="410" y="960" />
              <mxPoint x="10" y="960" />
              <mxPoint x="10" y="287" />
            </Array>
          </mxGeometry>
        </mxCell>
        <mxCell id="401" value="current_field = 0" style="rounded=0;whiteSpace=wrap;html=1;" parent="1" vertex="1">
          <mxGeometry x="350" y="880" width="120" height="60" as="geometry" />
        </mxCell>
        <mxCell id="418" style="edgeStyle=orthogonalEdgeStyle;rounded=0;orthogonalLoop=1;jettySize=auto;html=1;exitX=0;exitY=0.5;exitDx=0;exitDy=0;entryX=0.5;entryY=0;entryDx=0;entryDy=0;" parent="1" source="402" edge="1">
          <mxGeometry relative="1" as="geometry" />
        </mxCell>
        <mxCell id="NLRpJ9qgujv1dD-FZUDW-455" style="edgeStyle=orthogonalEdgeStyle;rounded=0;orthogonalLoop=1;jettySize=auto;html=1;exitX=0.5;exitY=1;exitDx=0;exitDy=0;" parent="1" source="403" edge="1">
          <mxGeometry relative="1" as="geometry">
            <mxPoint x="329.2857142857147" y="960" as="targetPoint" />
          </mxGeometry>
        </mxCell>
        <mxCell id="403" value="current_field++" style="rounded=0;whiteSpace=wrap;html=1;" parent="1" vertex="1">
          <mxGeometry x="270" y="790" width="120" height="60" as="geometry" />
        </mxCell>
        <mxCell id="423" style="edgeStyle=orthogonalEdgeStyle;rounded=0;orthogonalLoop=1;jettySize=auto;html=1;exitX=0;exitY=0.5;exitDx=0;exitDy=0;entryX=0.5;entryY=0;entryDx=0;entryDy=0;" parent="1" source="405" edge="1">
          <mxGeometry relative="1" as="geometry" />
        </mxCell>
        <mxCell id="425" style="edgeStyle=orthogonalEdgeStyle;rounded=0;orthogonalLoop=1;jettySize=auto;html=1;exitX=0;exitY=0.5;exitDx=0;exitDy=0;entryX=0.5;entryY=0;entryDx=0;entryDy=0;" parent="1" source="406" target="400" edge="1">
          <mxGeometry relative="1" as="geometry" />
        </mxCell>
        <mxCell id="426" style="edgeStyle=orthogonalEdgeStyle;rounded=0;orthogonalLoop=1;jettySize=auto;html=1;exitX=1;exitY=0.5;exitDx=0;exitDy=0;entryX=0.5;entryY=0;entryDx=0;entryDy=0;" parent="1" source="406" target="405" edge="1">
          <mxGeometry relative="1" as="geometry" />
        </mxCell>
        <mxCell id="427" style="edgeStyle=orthogonalEdgeStyle;rounded=0;orthogonalLoop=1;jettySize=auto;html=1;exitX=0.5;exitY=1;exitDx=0;exitDy=0;entryX=0.5;entryY=0;entryDx=0;entryDy=0;" parent="1" target="406" edge="1">
          <mxGeometry relative="1" as="geometry">
            <mxPoint x="272.5" y="530" as="sourcePoint" />
          </mxGeometry>
        </mxCell>
        <mxCell id="NLRpJ9qgujv1dD-FZUDW-436" style="edgeStyle=orthogonalEdgeStyle;rounded=0;orthogonalLoop=1;jettySize=auto;html=1;exitX=0.5;exitY=1;exitDx=0;exitDy=0;entryX=0.5;entryY=0;entryDx=0;entryDy=0;" parent="1" source="NLRpJ9qgujv1dD-FZUDW-430" target="NLRpJ9qgujv1dD-FZUDW-432" edge="1">
          <mxGeometry relative="1" as="geometry" />
        </mxCell>
        <mxCell id="NLRpJ9qgujv1dD-FZUDW-430" value="char current_field = 0,&lt;br&gt;ret = RIGHT;&lt;br&gt;setCursorPosition&lt;br&gt;(0, EDITOR_POSY);" style="rounded=0;whiteSpace=wrap;html=1;" parent="1" vertex="1">
          <mxGeometry x="609.5" y="399" width="120" height="60" as="geometry" />
        </mxCell>
        <mxCell id="NLRpJ9qgujv1dD-FZUDW-435" style="edgeStyle=orthogonalEdgeStyle;rounded=0;orthogonalLoop=1;jettySize=auto;html=1;exitX=0.5;exitY=1;exitDx=0;exitDy=0;entryX=0.5;entryY=0;entryDx=0;entryDy=0;" parent="1" source="NLRpJ9qgujv1dD-FZUDW-431" target="NLRpJ9qgujv1dD-FZUDW-430" edge="1">
          <mxGeometry relative="1" as="geometry" />
        </mxCell>
        <mxCell id="NLRpJ9qgujv1dD-FZUDW-431" value="clear_lines&lt;br&gt;(EDITOR_POSY - 1, EDITOR_POSY + 1);" style="rounded=0;whiteSpace=wrap;html=1;" parent="1" vertex="1">
          <mxGeometry x="609.5" y="319" width="120" height="60" as="geometry" />
        </mxCell>
        <mxCell id="NLRpJ9qgujv1dD-FZUDW-454" style="edgeStyle=orthogonalEdgeStyle;rounded=0;orthogonalLoop=1;jettySize=auto;html=1;exitX=0.5;exitY=1;exitDx=0;exitDy=0;entryX=0.5;entryY=0;entryDx=0;entryDy=0;" parent="1" source="NLRpJ9qgujv1dD-FZUDW-432" target="NLRpJ9qgujv1dD-FZUDW-437" edge="1">
          <mxGeometry relative="1" as="geometry">
            <Array as="points">
              <mxPoint x="670" y="560" />
              <mxPoint x="471" y="560" />
              <mxPoint x="471" y="270" />
              <mxPoint x="273" y="270" />
            </Array>
          </mxGeometry>
        </mxCell>
        <mxCell id="NLRpJ9qgujv1dD-FZUDW-432" value="element_print(elem);&lt;br&gt;setCursorVisibility&lt;br&gt;(TRUE)" style="rounded=0;whiteSpace=wrap;html=1;" parent="1" vertex="1">
          <mxGeometry x="609.5" y="479" width="120" height="60" as="geometry" />
        </mxCell>
        <mxCell id="NLRpJ9qgujv1dD-FZUDW-440" style="edgeStyle=orthogonalEdgeStyle;rounded=0;orthogonalLoop=1;jettySize=auto;html=1;exitX=0.5;exitY=1;exitDx=0;exitDy=0;entryX=0.5;entryY=0;entryDx=0;entryDy=0;" parent="1" source="NLRpJ9qgujv1dD-FZUDW-437" target="NLRpJ9qgujv1dD-FZUDW-438" edge="1">
          <mxGeometry relative="1" as="geometry" />
        </mxCell>
        <mxCell id="NLRpJ9qgujv1dD-FZUDW-437" value="Field field = list_element_fields&lt;br&gt;[current_field];" style="rounded=0;whiteSpace=wrap;html=1;" parent="1" vertex="1">
          <mxGeometry x="212.5" y="310" width="120" height="60" as="geometry" />
        </mxCell>
        <mxCell id="NLRpJ9qgujv1dD-FZUDW-441" style="edgeStyle=orthogonalEdgeStyle;rounded=0;orthogonalLoop=1;jettySize=auto;html=1;exitX=0.5;exitY=1;exitDx=0;exitDy=0;entryX=0.5;entryY=0;entryDx=0;entryDy=0;" parent="1" source="NLRpJ9qgujv1dD-FZUDW-438" target="NLRpJ9qgujv1dD-FZUDW-439" edge="1">
          <mxGeometry relative="1" as="geometry" />
        </mxCell>
        <mxCell id="NLRpJ9qgujv1dD-FZUDW-438" value="char * offset =&lt;br&gt;(char *)elem + field.offset;" style="rounded=0;whiteSpace=wrap;html=1;" parent="1" vertex="1">
          <mxGeometry x="212.5" y="390" width="120" height="60" as="geometry" />
        </mxCell>
        <mxCell id="NLRpJ9qgujv1dD-FZUDW-439" value="ret = field.read_func(ret, field.posx, offset, field)" style="rounded=0;whiteSpace=wrap;html=1;" parent="1" vertex="1">
          <mxGeometry x="212.5" y="470" width="120" height="60" as="geometry" />
        </mxCell>
        <mxCell id="NLRpJ9qgujv1dD-FZUDW-445" value="+" style="text;html=1;align=center;verticalAlign=middle;resizable=0;points=[];autosize=1;" parent="1" vertex="1">
          <mxGeometry x="470" y="740" width="20" height="20" as="geometry" />
        </mxCell>
        <mxCell id="NLRpJ9qgujv1dD-FZUDW-452" value="+" style="text;html=1;align=center;verticalAlign=middle;resizable=0;points=[];autosize=1;" parent="1" vertex="1">
          <mxGeometry x="550" y="820" width="20" height="20" as="geometry" />
        </mxCell>
        <mxCell id="NLRpJ9qgujv1dD-FZUDW-462" value="+" style="text;html=1;align=center;verticalAlign=middle;resizable=0;points=[];autosize=1;" parent="1" vertex="1">
          <mxGeometry x="470" y="650" width="20" height="20" as="geometry" />
        </mxCell>
        <mxCell id="NLRpJ9qgujv1dD-FZUDW-463" value="+" style="text;html=1;align=center;verticalAlign=middle;resizable=0;points=[];autosize=1;" parent="1" vertex="1">
          <mxGeometry x="100" y="640" width="20" height="20" as="geometry" />
        </mxCell>
        <mxCell id="NLRpJ9qgujv1dD-FZUDW-464" value="+" style="text;html=1;align=center;verticalAlign=middle;resizable=0;points=[];autosize=1;" parent="1" vertex="1">
          <mxGeometry x="193" y="560" width="20" height="20" as="geometry" />
        </mxCell>
        <mxCell id="NLRpJ9qgujv1dD-FZUDW-467" style="edgeStyle=orthogonalEdgeStyle;rounded=0;orthogonalLoop=1;jettySize=auto;html=1;exitX=0.5;exitY=1;exitDx=0;exitDy=0;entryX=0.5;entryY=0;entryDx=0;entryDy=0;" parent="1" source="NLRpJ9qgujv1dD-FZUDW-465" target="408" edge="1">
          <mxGeometry relative="1" as="geometry" />
        </mxCell>
        <mxCell id="NLRpJ9qgujv1dD-FZUDW-465" value="clear_lines&lt;br&gt;(EDITOR_POSY - 1, EDITOR_POSY + 1)" style="rounded=0;whiteSpace=wrap;html=1;" parent="1" vertex="1">
          <mxGeometry x="610" y="770" width="120" height="60" as="geometry" />
        </mxCell>
        <mxCell id="NLRpJ9qgujv1dD-FZUDW-468" value="1" style="whiteSpace=wrap;html=1;aspect=fixed;" parent="1" vertex="1">
          <mxGeometry x="732" y="319" width="20" height="20" as="geometry" />
        </mxCell>
        <mxCell id="NLRpJ9qgujv1dD-FZUDW-469" value="2" style="whiteSpace=wrap;html=1;aspect=fixed;" parent="1" vertex="1">
          <mxGeometry x="732" y="399" width="20" height="20" as="geometry" />
        </mxCell>
        <mxCell id="NLRpJ9qgujv1dD-FZUDW-470" value="3" style="whiteSpace=wrap;html=1;aspect=fixed;" parent="1" vertex="1">
          <mxGeometry x="732" y="479" width="20" height="20" as="geometry" />
        </mxCell>
        <mxCell id="NLRpJ9qgujv1dD-FZUDW-471" value="4" style="whiteSpace=wrap;html=1;aspect=fixed;" parent="1" vertex="1">
          <mxGeometry x="335" y="310" width="20" height="20" as="geometry" />
        </mxCell>
        <mxCell id="NLRpJ9qgujv1dD-FZUDW-472" value="5" style="whiteSpace=wrap;html=1;aspect=fixed;" parent="1" vertex="1">
          <mxGeometry x="335" y="390" width="20" height="20" as="geometry" />
        </mxCell>
        <mxCell id="NLRpJ9qgujv1dD-FZUDW-473" value="6" style="whiteSpace=wrap;html=1;aspect=fixed;" parent="1" vertex="1">
          <mxGeometry x="335" y="470" width="20" height="20" as="geometry" />
        </mxCell>
        <mxCell id="NLRpJ9qgujv1dD-FZUDW-474" value="7" style="whiteSpace=wrap;html=1;aspect=fixed;" parent="1" vertex="1">
          <mxGeometry x="335" y="550" width="20" height="20" as="geometry" />
        </mxCell>
        <mxCell id="NLRpJ9qgujv1dD-FZUDW-475" value="11" style="whiteSpace=wrap;html=1;aspect=fixed;" parent="1" vertex="1">
          <mxGeometry x="474" y="620" width="20" height="20" as="geometry" />
        </mxCell>
        <mxCell id="NLRpJ9qgujv1dD-FZUDW-476" value="12" style="whiteSpace=wrap;html=1;aspect=fixed;" parent="1" vertex="1">
          <mxGeometry x="474" y="710" width="20" height="20" as="geometry" />
        </mxCell>
        <mxCell id="NLRpJ9qgujv1dD-FZUDW-477" value="14" style="whiteSpace=wrap;html=1;aspect=fixed;" parent="1" vertex="1">
          <mxGeometry x="550" y="790" width="20" height="20" as="geometry" />
        </mxCell>
        <mxCell id="NLRpJ9qgujv1dD-FZUDW-478" value="15" style="whiteSpace=wrap;html=1;aspect=fixed;" parent="1" vertex="1">
          <mxGeometry x="474" y="880" width="20" height="20" as="geometry" />
        </mxCell>
        <mxCell id="NLRpJ9qgujv1dD-FZUDW-479" value="13" style="whiteSpace=wrap;html=1;aspect=fixed;" parent="1" vertex="1">
          <mxGeometry x="392" y="790" width="20" height="20" as="geometry" />
        </mxCell>
        <mxCell id="NLRpJ9qgujv1dD-FZUDW-480" value="10" style="whiteSpace=wrap;html=1;aspect=fixed;" parent="1" vertex="1">
          <mxGeometry x="312" y="710" width="20" height="20" as="geometry" />
        </mxCell>
        <mxCell id="NLRpJ9qgujv1dD-FZUDW-481" value="9" style="whiteSpace=wrap;html=1;aspect=fixed;" parent="1" vertex="1">
          <mxGeometry x="152" y="710" width="20" height="20" as="geometry" />
        </mxCell>
        <mxCell id="NLRpJ9qgujv1dD-FZUDW-482" value="16" style="whiteSpace=wrap;html=1;aspect=fixed;" parent="1" vertex="1">
          <mxGeometry x="732" y="690" width="20" height="20" as="geometry" />
        </mxCell>
        <mxCell id="NLRpJ9qgujv1dD-FZUDW-483" value="17" style="whiteSpace=wrap;html=1;aspect=fixed;" parent="1" vertex="1">
          <mxGeometry x="732" y="770" width="20" height="20" as="geometry" />
        </mxCell>
        <mxCell id="NLRpJ9qgujv1dD-FZUDW-484" value="18" style="whiteSpace=wrap;html=1;aspect=fixed;" parent="1" vertex="1">
          <mxGeometry x="732" y="850" width="20" height="20" as="geometry" />
        </mxCell>
        <mxCell id="NLRpJ9qgujv1dD-FZUDW-485" value="8" style="whiteSpace=wrap;html=1;aspect=fixed;" parent="1" vertex="1">
          <mxGeometry x="242" y="630" width="20" height="20" as="geometry" />
        </mxCell>
      </root>
    </mxGraphModel>
  </diagram>
</mxfile>
